<mxfile host="65bd71144e">
    <diagram id="w65jPctJufdCjl-XzlSz" name="Page-1">
        <mxGraphModel dx="1129" dy="903" grid="1" gridSize="10" guides="1" tooltips="1" connect="1" arrows="1" fold="1" page="1" pageScale="1" pageWidth="850" pageHeight="1100" math="0" shadow="0">
            <root>
                <mxCell id="0"/>
                <mxCell id="1" parent="0"/>
                <mxCell id="11" value="" style="group" parent="1" vertex="1" connectable="0">
                    <mxGeometry x="140" y="40" width="140" height="200" as="geometry"/>
                </mxCell>
                <mxCell id="2" value="" style="rounded=0;whiteSpace=wrap;html=1;" parent="11" vertex="1">
                    <mxGeometry width="140" height="170" as="geometry"/>
                </mxCell>
                <mxCell id="5" value="listItem_t" style="text;html=1;strokeColor=none;fillColor=none;align=center;verticalAlign=middle;whiteSpace=wrap;rounded=0;" parent="11" vertex="1">
                    <mxGeometry x="40" y="170" width="60" height="30" as="geometry"/>
                </mxCell>
                <mxCell id="6" value="listItem_t* pNext" style="rounded=1;whiteSpace=wrap;html=1;" parent="11" vertex="1">
                    <mxGeometry x="10" y="10" width="110" height="30" as="geometry"/>
                </mxCell>
                <mxCell id="7" value="listItem_t* pPrev" style="rounded=1;whiteSpace=wrap;html=1;" parent="11" vertex="1">
                    <mxGeometry x="10" y="50" width="110" height="30" as="geometry"/>
                </mxCell>
                <mxCell id="8" value="void *pThread" style="rounded=1;whiteSpace=wrap;html=1;" parent="11" vertex="1">
                    <mxGeometry x="10" y="90" width="110" height="30" as="geometry"/>
                </mxCell>
                <mxCell id="10" value="void *pList" style="rounded=1;whiteSpace=wrap;html=1;" parent="11" vertex="1">
                    <mxGeometry x="10" y="130" width="110" height="30" as="geometry"/>
                </mxCell>
                <mxCell id="19" value="" style="group" parent="1" vertex="1" connectable="0">
                    <mxGeometry x="140" y="250" width="140" height="91" as="geometry"/>
                </mxCell>
                <mxCell id="13" value="" style="rounded=0;whiteSpace=wrap;html=1;" parent="19" vertex="1">
                    <mxGeometry width="140" height="70" as="geometry"/>
                </mxCell>
                <mxCell id="14" value="listEnd_t" style="text;html=1;strokeColor=none;fillColor=none;align=center;verticalAlign=middle;whiteSpace=wrap;rounded=0;" parent="19" vertex="1">
                    <mxGeometry x="35" y="70" width="60" height="21" as="geometry"/>
                </mxCell>
                <mxCell id="15" value="listItem_t* pNext" style="rounded=1;whiteSpace=wrap;html=1;" parent="19" vertex="1">
                    <mxGeometry x="10" y="7" width="110" height="21" as="geometry"/>
                </mxCell>
                <mxCell id="16" value="listItem_t* pPrev" style="rounded=1;whiteSpace=wrap;html=1;" parent="19" vertex="1">
                    <mxGeometry x="10" y="35" width="110" height="21" as="geometry"/>
                </mxCell>
                <mxCell id="27" value="" style="group" parent="1" vertex="1" connectable="0">
                    <mxGeometry x="140" y="360" width="140" height="170" as="geometry"/>
                </mxCell>
                <mxCell id="21" value="" style="rounded=0;whiteSpace=wrap;html=1;" parent="27" vertex="1">
                    <mxGeometry width="140" height="140" as="geometry"/>
                </mxCell>
                <mxCell id="22" value="list_t" style="text;html=1;strokeColor=none;fillColor=none;align=center;verticalAlign=middle;whiteSpace=wrap;rounded=0;" parent="27" vertex="1">
                    <mxGeometry x="40" y="140" width="60" height="30" as="geometry"/>
                </mxCell>
                <mxCell id="23" value="uint32_t numOfItems" style="rounded=1;whiteSpace=wrap;html=1;" parent="27" vertex="1">
                    <mxGeometry x="10" y="10" width="120" height="30" as="geometry"/>
                </mxCell>
                <mxCell id="24" value="listItem_t* pIndex" style="rounded=1;whiteSpace=wrap;html=1;" parent="27" vertex="1">
                    <mxGeometry x="10" y="50" width="120" height="30" as="geometry"/>
                </mxCell>
                <mxCell id="25" value="listEnd_t listEnd" style="rounded=1;whiteSpace=wrap;html=1;" parent="27" vertex="1">
                    <mxGeometry x="10" y="90" width="120" height="30" as="geometry"/>
                </mxCell>
                <mxCell id="36" value="" style="group" parent="1" vertex="1" connectable="0">
                    <mxGeometry x="350" y="40" width="150" height="160" as="geometry"/>
                </mxCell>
                <mxCell id="29" value="" style="rounded=0;whiteSpace=wrap;html=1;" parent="36" vertex="1">
                    <mxGeometry width="150" height="130" as="geometry"/>
                </mxCell>
                <mxCell id="30" value="thread_t" style="text;html=1;strokeColor=none;fillColor=none;align=center;verticalAlign=middle;whiteSpace=wrap;rounded=0;" parent="36" vertex="1">
                    <mxGeometry x="45" y="130" width="60" height="30" as="geometry"/>
                </mxCell>
                <mxCell id="31" value="uint32_t pStackpointer" style="rounded=1;whiteSpace=wrap;html=1;" parent="36" vertex="1">
                    <mxGeometry x="10" y="10" width="130" height="30" as="geometry"/>
                </mxCell>
                <mxCell id="32" value="uint32_t priority" style="rounded=1;whiteSpace=wrap;html=1;" parent="36" vertex="1">
                    <mxGeometry x="10" y="50" width="130" height="30" as="geometry"/>
                </mxCell>
                <mxCell id="33" value="listItem_t item" style="rounded=1;whiteSpace=wrap;html=1;" parent="36" vertex="1">
                    <mxGeometry x="10" y="90" width="130" height="30" as="geometry"/>
                </mxCell>
                <mxCell id="48" value="" style="group" parent="1" vertex="1" connectable="0">
                    <mxGeometry x="330" y="250" width="220" height="80" as="geometry"/>
                </mxCell>
                <mxCell id="43" value="" style="rounded=0;whiteSpace=wrap;html=1;" parent="48" vertex="1">
                    <mxGeometry width="220" height="50" as="geometry"/>
                </mxCell>
                <mxCell id="44" value="stack_t" style="text;html=1;strokeColor=none;fillColor=none;align=center;verticalAlign=middle;whiteSpace=wrap;rounded=0;" parent="48" vertex="1">
                    <mxGeometry x="80" y="50" width="60" height="30" as="geometry"/>
                </mxCell>
                <mxCell id="45" value="uint64_t stack[THREAD_STACK_SIZE]" style="rounded=1;whiteSpace=wrap;html=1;" parent="48" vertex="1">
                    <mxGeometry x="10" y="10" width="200" height="30" as="geometry"/>
                </mxCell>
                <mxCell id="89" value="1. Each thread has it's own Item.&lt;br&gt;2. Each thread has it's own stack.&lt;br&gt;&amp;nbsp;3. Each list is an array of lists for system number of priorities.&amp;nbsp;&lt;br&gt;4. Each list across different priority level should have it's own linked list with it's item list structure instance.&lt;br&gt;5. Each thread is able to point to only one list (ready/pending/running)" style="shape=note;whiteSpace=wrap;html=1;backgroundOutline=1;darkOpacity=0.05;" parent="1" vertex="1">
                    <mxGeometry x="570" y="40" width="220" height="140" as="geometry"/>
                </mxCell>
                <mxCell id="138" value="" style="group" parent="1" vertex="1" connectable="0">
                    <mxGeometry x="440" y="540" width="290" height="313" as="geometry"/>
                </mxCell>
                <mxCell id="90" value="" style="rounded=0;whiteSpace=wrap;html=1;" parent="138" vertex="1">
                    <mxGeometry x="50" width="240" height="313" as="geometry"/>
                </mxCell>
                <mxCell id="91" value="" style="rounded=0;whiteSpace=wrap;html=1;" parent="138" vertex="1">
                    <mxGeometry x="10" y="35" width="280" height="45" as="geometry"/>
                </mxCell>
                <mxCell id="92" value="" style="rounded=0;whiteSpace=wrap;html=1;" parent="138" vertex="1">
                    <mxGeometry x="10" y="80" width="280" height="45" as="geometry"/>
                </mxCell>
                <mxCell id="93" value="" style="rounded=0;whiteSpace=wrap;html=1;" parent="138" vertex="1">
                    <mxGeometry x="10" y="126" width="280" height="45" as="geometry"/>
                </mxCell>
                <mxCell id="94" value="" style="rounded=0;whiteSpace=wrap;html=1;" parent="138" vertex="1">
                    <mxGeometry x="10" y="171" width="280" height="45" as="geometry"/>
                </mxCell>
                <mxCell id="95" value="" style="rounded=0;whiteSpace=wrap;html=1;" parent="138" vertex="1">
                    <mxGeometry x="10" y="216" width="280" height="45" as="geometry"/>
                </mxCell>
                <mxCell id="96" value="" style="rounded=0;whiteSpace=wrap;html=1;" parent="138" vertex="1">
                    <mxGeometry x="10" y="262" width="280" height="51" as="geometry"/>
                </mxCell>
                <mxCell id="97" value="Pendinglist" style="text;html=1;strokeColor=none;fillColor=none;align=center;verticalAlign=middle;whiteSpace=wrap;rounded=0;" parent="138" vertex="1">
                    <mxGeometry x="140" width="60" height="30" as="geometry"/>
                </mxCell>
                <mxCell id="102" value="" style="endArrow=none;html=1;entryX=0.145;entryY=-0.051;entryDx=0;entryDy=0;entryPerimeter=0;exitX=0.145;exitY=1;exitDx=0;exitDy=0;exitPerimeter=0;" parent="138" source="96" target="91" edge="1">
                    <mxGeometry width="50" height="50" relative="1" as="geometry">
                        <mxPoint x="20" y="103" as="sourcePoint"/>
                        <mxPoint x="70" y="53" as="targetPoint"/>
                    </mxGeometry>
                </mxCell>
                <mxCell id="103" value="#1" style="text;html=1;strokeColor=none;fillColor=none;align=center;verticalAlign=middle;whiteSpace=wrap;rounded=0;" parent="138" vertex="1">
                    <mxGeometry y="42.5" width="60" height="30" as="geometry"/>
                </mxCell>
                <mxCell id="104" value="#2" style="text;html=1;strokeColor=none;fillColor=none;align=center;verticalAlign=middle;whiteSpace=wrap;rounded=0;" parent="138" vertex="1">
                    <mxGeometry y="87.5" width="60" height="30" as="geometry"/>
                </mxCell>
                <mxCell id="105" value="#3" style="text;html=1;strokeColor=none;fillColor=none;align=center;verticalAlign=middle;whiteSpace=wrap;rounded=0;" parent="138" vertex="1">
                    <mxGeometry y="133.5" width="60" height="30" as="geometry"/>
                </mxCell>
                <mxCell id="106" value="#4" style="text;html=1;strokeColor=none;fillColor=none;align=center;verticalAlign=middle;whiteSpace=wrap;rounded=0;" parent="138" vertex="1">
                    <mxGeometry y="178.5" width="60" height="30" as="geometry"/>
                </mxCell>
                <mxCell id="107" value="#5" style="text;html=1;strokeColor=none;fillColor=none;align=center;verticalAlign=middle;whiteSpace=wrap;rounded=0;" parent="138" vertex="1">
                    <mxGeometry y="223.5" width="60" height="30" as="geometry"/>
                </mxCell>
                <mxCell id="108" value="#6" style="text;html=1;strokeColor=none;fillColor=none;align=center;verticalAlign=middle;whiteSpace=wrap;rounded=0;" parent="138" vertex="1">
                    <mxGeometry y="272.5" width="60" height="30" as="geometry"/>
                </mxCell>
                <mxCell id="109" value="listitem#1" style="rounded=0;whiteSpace=wrap;html=1;strokeColor=#0000FF;" parent="138" vertex="1">
                    <mxGeometry x="52" y="36.25" width="60" height="40.5" as="geometry"/>
                </mxCell>
                <mxCell id="110" value="listitem#2" style="rounded=0;whiteSpace=wrap;html=1;strokeColor=#0000FF;" parent="138" vertex="1">
                    <mxGeometry x="112" y="36.25" width="60" height="40.5" as="geometry"/>
                </mxCell>
                <mxCell id="113" value="" style="rounded=0;whiteSpace=wrap;html=1;strokeColor=#0000FF;" parent="138" vertex="1">
                    <mxGeometry x="171" y="36.25" width="60" height="40.5" as="geometry"/>
                </mxCell>
                <mxCell id="114" value="" style="rounded=0;whiteSpace=wrap;html=1;strokeColor=#0000FF;" parent="138" vertex="1">
                    <mxGeometry x="230" y="36.25" width="60" height="40.5" as="geometry"/>
                </mxCell>
                <mxCell id="115" value="listitem#3" style="rounded=0;whiteSpace=wrap;html=1;strokeColor=#0000FF;" parent="138" vertex="1">
                    <mxGeometry x="52" y="81.25" width="60" height="40.5" as="geometry"/>
                </mxCell>
                <mxCell id="116" value="listitem#4" style="rounded=0;whiteSpace=wrap;html=1;strokeColor=#0000FF;" parent="138" vertex="1">
                    <mxGeometry x="112" y="81.25" width="60" height="40.5" as="geometry"/>
                </mxCell>
                <mxCell id="117" value="listitem#5" style="rounded=0;whiteSpace=wrap;html=1;strokeColor=#0000FF;" parent="138" vertex="1">
                    <mxGeometry x="171" y="81.25" width="60" height="40.5" as="geometry"/>
                </mxCell>
                <mxCell id="118" value="" style="rounded=0;whiteSpace=wrap;html=1;strokeColor=#0000FF;" parent="138" vertex="1">
                    <mxGeometry x="230" y="81.25" width="60" height="40.5" as="geometry"/>
                </mxCell>
                <mxCell id="119" value="" style="rounded=0;whiteSpace=wrap;html=1;strokeColor=#0000FF;" parent="138" vertex="1">
                    <mxGeometry x="52" y="127" width="60" height="40.5" as="geometry"/>
                </mxCell>
                <mxCell id="120" value="" style="rounded=0;whiteSpace=wrap;html=1;strokeColor=#0000FF;" parent="138" vertex="1">
                    <mxGeometry x="112" y="127" width="60" height="40.5" as="geometry"/>
                </mxCell>
                <mxCell id="121" value="" style="rounded=0;whiteSpace=wrap;html=1;strokeColor=#0000FF;" parent="138" vertex="1">
                    <mxGeometry x="171" y="127" width="60" height="40.5" as="geometry"/>
                </mxCell>
                <mxCell id="122" value="" style="rounded=0;whiteSpace=wrap;html=1;strokeColor=#0000FF;" parent="138" vertex="1">
                    <mxGeometry x="230" y="127" width="60" height="40.5" as="geometry"/>
                </mxCell>
                <mxCell id="123" value="listitem#6" style="rounded=0;whiteSpace=wrap;html=1;strokeColor=#0000FF;" parent="138" vertex="1">
                    <mxGeometry x="52" y="173.25" width="60" height="40.5" as="geometry"/>
                </mxCell>
                <mxCell id="124" value="listitem#7" style="rounded=0;whiteSpace=wrap;html=1;strokeColor=#0000FF;" parent="138" vertex="1">
                    <mxGeometry x="112" y="173.25" width="60" height="40.5" as="geometry"/>
                </mxCell>
                <mxCell id="125" value="" style="rounded=0;whiteSpace=wrap;html=1;strokeColor=#0000FF;" parent="138" vertex="1">
                    <mxGeometry x="171" y="173.25" width="60" height="40.5" as="geometry"/>
                </mxCell>
                <mxCell id="126" value="" style="rounded=0;whiteSpace=wrap;html=1;strokeColor=#0000FF;" parent="138" vertex="1">
                    <mxGeometry x="230" y="173.25" width="60" height="40.5" as="geometry"/>
                </mxCell>
                <mxCell id="127" value="listitem#8" style="rounded=0;whiteSpace=wrap;html=1;strokeColor=#0000FF;" parent="138" vertex="1">
                    <mxGeometry x="52" y="216" width="60" height="40.5" as="geometry"/>
                </mxCell>
                <mxCell id="128" value="" style="rounded=0;whiteSpace=wrap;html=1;strokeColor=#0000FF;" parent="138" vertex="1">
                    <mxGeometry x="112" y="216" width="60" height="40.5" as="geometry"/>
                </mxCell>
                <mxCell id="129" value="" style="rounded=0;whiteSpace=wrap;html=1;strokeColor=#0000FF;" parent="138" vertex="1">
                    <mxGeometry x="171" y="216" width="60" height="40.5" as="geometry"/>
                </mxCell>
                <mxCell id="130" value="" style="rounded=0;whiteSpace=wrap;html=1;strokeColor=#0000FF;" parent="138" vertex="1">
                    <mxGeometry x="230" y="216" width="60" height="40.5" as="geometry"/>
                </mxCell>
                <mxCell id="131" value="listitem#9" style="rounded=0;whiteSpace=wrap;html=1;strokeColor=#0000FF;" parent="138" vertex="1">
                    <mxGeometry x="52" y="263" width="60" height="40.5" as="geometry"/>
                </mxCell>
                <mxCell id="132" value="listitem#10" style="rounded=0;whiteSpace=wrap;html=1;strokeColor=#0000FF;" parent="138" vertex="1">
                    <mxGeometry x="112" y="263" width="60" height="40.5" as="geometry"/>
                </mxCell>
                <mxCell id="133" value="listitem#11" style="rounded=0;whiteSpace=wrap;html=1;strokeColor=#0000FF;" parent="138" vertex="1">
                    <mxGeometry x="171" y="263" width="60" height="40.5" as="geometry"/>
                </mxCell>
                <mxCell id="134" value="listitem#12" style="rounded=0;whiteSpace=wrap;html=1;strokeColor=#0000FF;" parent="138" vertex="1">
                    <mxGeometry x="230" y="263" width="60" height="40.5" as="geometry"/>
                </mxCell>
                <mxCell id="137" value="Priority" style="rounded=0;whiteSpace=wrap;html=1;strokeColor=#FFFFFF;" parent="138" vertex="1">
                    <mxGeometry x="10" y="3" width="42" height="32" as="geometry"/>
                </mxCell>
                <mxCell id="139" value="" style="group" parent="1" vertex="1" connectable="0">
                    <mxGeometry x="120" y="540" width="290" height="313" as="geometry"/>
                </mxCell>
                <mxCell id="140" value="" style="rounded=0;whiteSpace=wrap;html=1;" parent="139" vertex="1">
                    <mxGeometry x="50" width="240" height="313" as="geometry"/>
                </mxCell>
                <mxCell id="141" value="" style="rounded=0;whiteSpace=wrap;html=1;" parent="139" vertex="1">
                    <mxGeometry x="10" y="35" width="280" height="45" as="geometry"/>
                </mxCell>
                <mxCell id="142" value="" style="rounded=0;whiteSpace=wrap;html=1;" parent="139" vertex="1">
                    <mxGeometry x="10" y="80" width="280" height="45" as="geometry"/>
                </mxCell>
                <mxCell id="143" value="" style="rounded=0;whiteSpace=wrap;html=1;" parent="139" vertex="1">
                    <mxGeometry x="10" y="126" width="280" height="45" as="geometry"/>
                </mxCell>
                <mxCell id="144" value="" style="rounded=0;whiteSpace=wrap;html=1;" parent="139" vertex="1">
                    <mxGeometry x="10" y="171" width="280" height="45" as="geometry"/>
                </mxCell>
                <mxCell id="145" value="" style="rounded=0;whiteSpace=wrap;html=1;" parent="139" vertex="1">
                    <mxGeometry x="10" y="216" width="280" height="45" as="geometry"/>
                </mxCell>
                <mxCell id="146" value="" style="rounded=0;whiteSpace=wrap;html=1;" parent="139" vertex="1">
                    <mxGeometry x="10" y="262" width="280" height="51" as="geometry"/>
                </mxCell>
                <mxCell id="147" value="Readylist" style="text;html=1;strokeColor=none;fillColor=none;align=center;verticalAlign=middle;whiteSpace=wrap;rounded=0;" parent="139" vertex="1">
                    <mxGeometry x="140" width="60" height="30" as="geometry"/>
                </mxCell>
                <mxCell id="148" value="" style="endArrow=none;html=1;entryX=0.145;entryY=-0.051;entryDx=0;entryDy=0;entryPerimeter=0;exitX=0.145;exitY=1;exitDx=0;exitDy=0;exitPerimeter=0;" parent="139" source="146" target="141" edge="1">
                    <mxGeometry width="50" height="50" relative="1" as="geometry">
                        <mxPoint x="20" y="103" as="sourcePoint"/>
                        <mxPoint x="70" y="53" as="targetPoint"/>
                    </mxGeometry>
                </mxCell>
                <mxCell id="149" value="#1" style="text;html=1;strokeColor=none;fillColor=none;align=center;verticalAlign=middle;whiteSpace=wrap;rounded=0;" parent="139" vertex="1">
                    <mxGeometry y="42.5" width="60" height="30" as="geometry"/>
                </mxCell>
                <mxCell id="150" value="#2" style="text;html=1;strokeColor=none;fillColor=none;align=center;verticalAlign=middle;whiteSpace=wrap;rounded=0;" parent="139" vertex="1">
                    <mxGeometry y="87.5" width="60" height="30" as="geometry"/>
                </mxCell>
                <mxCell id="151" value="#3" style="text;html=1;strokeColor=none;fillColor=none;align=center;verticalAlign=middle;whiteSpace=wrap;rounded=0;" parent="139" vertex="1">
                    <mxGeometry y="133.5" width="60" height="30" as="geometry"/>
                </mxCell>
                <mxCell id="152" value="#4" style="text;html=1;strokeColor=none;fillColor=none;align=center;verticalAlign=middle;whiteSpace=wrap;rounded=0;" parent="139" vertex="1">
                    <mxGeometry y="178.5" width="60" height="30" as="geometry"/>
                </mxCell>
                <mxCell id="153" value="#5" style="text;html=1;strokeColor=none;fillColor=none;align=center;verticalAlign=middle;whiteSpace=wrap;rounded=0;" parent="139" vertex="1">
                    <mxGeometry y="223.5" width="60" height="30" as="geometry"/>
                </mxCell>
                <mxCell id="154" value="#6" style="text;html=1;strokeColor=none;fillColor=none;align=center;verticalAlign=middle;whiteSpace=wrap;rounded=0;" parent="139" vertex="1">
                    <mxGeometry y="272.5" width="60" height="30" as="geometry"/>
                </mxCell>
                <mxCell id="155" value="listitem#1" style="rounded=0;whiteSpace=wrap;html=1;strokeColor=#0000FF;" parent="139" vertex="1">
                    <mxGeometry x="52" y="36.25" width="60" height="40.5" as="geometry"/>
                </mxCell>
                <mxCell id="156" value="listitem#2" style="rounded=0;whiteSpace=wrap;html=1;strokeColor=#0000FF;" parent="139" vertex="1">
                    <mxGeometry x="112" y="36.25" width="60" height="40.5" as="geometry"/>
                </mxCell>
                <mxCell id="157" value="" style="rounded=0;whiteSpace=wrap;html=1;strokeColor=#0000FF;" parent="139" vertex="1">
                    <mxGeometry x="171" y="36.25" width="60" height="40.5" as="geometry"/>
                </mxCell>
                <mxCell id="158" value="" style="rounded=0;whiteSpace=wrap;html=1;strokeColor=#0000FF;" parent="139" vertex="1">
                    <mxGeometry x="230" y="36.25" width="60" height="40.5" as="geometry"/>
                </mxCell>
                <mxCell id="159" value="listitem#3" style="rounded=0;whiteSpace=wrap;html=1;strokeColor=#0000FF;" parent="139" vertex="1">
                    <mxGeometry x="52" y="81.25" width="60" height="40.5" as="geometry"/>
                </mxCell>
                <mxCell id="160" value="listitem#4" style="rounded=0;whiteSpace=wrap;html=1;strokeColor=#0000FF;" parent="139" vertex="1">
                    <mxGeometry x="112" y="81.25" width="60" height="40.5" as="geometry"/>
                </mxCell>
                <mxCell id="161" value="listitem#5" style="rounded=0;whiteSpace=wrap;html=1;strokeColor=#0000FF;" parent="139" vertex="1">
                    <mxGeometry x="171" y="81.25" width="60" height="40.5" as="geometry"/>
                </mxCell>
                <mxCell id="162" value="" style="rounded=0;whiteSpace=wrap;html=1;strokeColor=#0000FF;" parent="139" vertex="1">
                    <mxGeometry x="230" y="81.25" width="60" height="40.5" as="geometry"/>
                </mxCell>
                <mxCell id="163" value="" style="rounded=0;whiteSpace=wrap;html=1;strokeColor=#0000FF;" parent="139" vertex="1">
                    <mxGeometry x="52" y="127" width="60" height="40.5" as="geometry"/>
                </mxCell>
                <mxCell id="164" value="" style="rounded=0;whiteSpace=wrap;html=1;strokeColor=#0000FF;" parent="139" vertex="1">
                    <mxGeometry x="112" y="127" width="60" height="40.5" as="geometry"/>
                </mxCell>
                <mxCell id="165" value="" style="rounded=0;whiteSpace=wrap;html=1;strokeColor=#0000FF;" parent="139" vertex="1">
                    <mxGeometry x="171" y="127" width="60" height="40.5" as="geometry"/>
                </mxCell>
                <mxCell id="166" value="" style="rounded=0;whiteSpace=wrap;html=1;strokeColor=#0000FF;" parent="139" vertex="1">
                    <mxGeometry x="230" y="127" width="60" height="40.5" as="geometry"/>
                </mxCell>
                <mxCell id="167" value="listitem#6" style="rounded=0;whiteSpace=wrap;html=1;strokeColor=#0000FF;" parent="139" vertex="1">
                    <mxGeometry x="52" y="173.25" width="60" height="40.5" as="geometry"/>
                </mxCell>
                <mxCell id="168" value="listitem#7" style="rounded=0;whiteSpace=wrap;html=1;strokeColor=#0000FF;" parent="139" vertex="1">
                    <mxGeometry x="112" y="173.25" width="60" height="40.5" as="geometry"/>
                </mxCell>
                <mxCell id="169" value="" style="rounded=0;whiteSpace=wrap;html=1;strokeColor=#0000FF;" parent="139" vertex="1">
                    <mxGeometry x="171" y="173.25" width="60" height="40.5" as="geometry"/>
                </mxCell>
                <mxCell id="170" value="" style="rounded=0;whiteSpace=wrap;html=1;strokeColor=#0000FF;" parent="139" vertex="1">
                    <mxGeometry x="230" y="173.25" width="60" height="40.5" as="geometry"/>
                </mxCell>
                <mxCell id="171" value="listitem#8" style="rounded=0;whiteSpace=wrap;html=1;strokeColor=#0000FF;" parent="139" vertex="1">
                    <mxGeometry x="52" y="216" width="60" height="40.5" as="geometry"/>
                </mxCell>
                <mxCell id="172" value="" style="rounded=0;whiteSpace=wrap;html=1;strokeColor=#0000FF;" parent="139" vertex="1">
                    <mxGeometry x="112" y="216" width="60" height="40.5" as="geometry"/>
                </mxCell>
                <mxCell id="173" value="" style="rounded=0;whiteSpace=wrap;html=1;strokeColor=#0000FF;" parent="139" vertex="1">
                    <mxGeometry x="171" y="216" width="60" height="40.5" as="geometry"/>
                </mxCell>
                <mxCell id="174" value="" style="rounded=0;whiteSpace=wrap;html=1;strokeColor=#0000FF;" parent="139" vertex="1">
                    <mxGeometry x="230" y="216" width="60" height="40.5" as="geometry"/>
                </mxCell>
                <mxCell id="175" value="listitem#9" style="rounded=0;whiteSpace=wrap;html=1;strokeColor=#0000FF;" parent="139" vertex="1">
                    <mxGeometry x="52" y="263" width="60" height="40.5" as="geometry"/>
                </mxCell>
                <mxCell id="176" value="listitem#10" style="rounded=0;whiteSpace=wrap;html=1;strokeColor=#0000FF;" parent="139" vertex="1">
                    <mxGeometry x="112" y="263" width="60" height="40.5" as="geometry"/>
                </mxCell>
                <mxCell id="177" value="listitem#11" style="rounded=0;whiteSpace=wrap;html=1;strokeColor=#0000FF;" parent="139" vertex="1">
                    <mxGeometry x="171" y="263" width="60" height="40.5" as="geometry"/>
                </mxCell>
                <mxCell id="178" value="listitem#12" style="rounded=0;whiteSpace=wrap;html=1;strokeColor=#0000FF;" parent="139" vertex="1">
                    <mxGeometry x="230" y="263" width="60" height="40.5" as="geometry"/>
                </mxCell>
                <mxCell id="179" value="Priority" style="rounded=0;whiteSpace=wrap;html=1;strokeColor=#FFFFFF;" parent="139" vertex="1">
                    <mxGeometry x="10" y="3" width="42" height="32" as="geometry"/>
                </mxCell>
            </root>
        </mxGraphModel>
    </diagram>
</mxfile>